<svg xmlns="http://www.w3.org/2000/svg" viewBox="0 0 64 64" width="64" height="64">
  <defs>
    <linearGradient id="g" x1="0" y1="0" x2="1" y2="1">
      <stop offset="0" stop-color="#7c5cff"/>
      <stop offset="1" stop-color="#2dd4bf"/>
    </linearGradient>
  </defs>
  <rect width="64" height="64" rx="12" fill="#151428"/>
  <path d="M42.5 45c-3.6 0-6.9-2.2-10.5-6.2c-3.6 4-6.9 6.2-10.5 6.2C16 45 12 41 12 36.5S16 28 21.5 28c3.1 0 6.2 1.9 10.5 6.3c4.3-4.4 7.4-6.3 10.5-6.3C48 28 52 32 52 36.5S48 45 42.5 45zM21.5 31C18.5 31 16 33.6 16 36.5S18.5 42 21.5 42c2.4 0 4.9-1.8 8.5-5.7c-3.6-3.9-6.1-5.7-8.5-5.7zm21 0c-2.4 0-4.9 1.8-8.5 5.7c3.6 3.9 6.1 5.7 8.5 5.7c3 0 5.5-2.6 5.5-5.5S45.5 31 42.5 31z" fill="url(#g)"/>
</svg>



